# xmcd
#
# Track frame offsets:
#	150
#	4813
#	23997
#	44122
#	60187
#	80282
#	95656
#	114626
#	134414
#	149881
#	168266
#	179942
#	196704
#	211984
#	230965
#	252157
#	270185
#	289611
#
# Disc length: 3976 seconds
#
# Revision: 0
# Processed by: cddbd v1.5.2PL0 Copyright (c) Steve Scherf et al.
# Submitted via: dBpowerAMP V4.0
#
DISCID=0c0f8612
DTITLE=Various Artist - B.L.O.O.D. Sport
DYEAR=2004
DGENRE=Hip-Hop
TTITLE0=Rob Viktum - Intro
TTITLE1=Black - A Day In The Life
TTITLE2=Steve Austin - Blood Sport
TTITLE3=Blaze Won - Breathe
TTITLE4=J-Vic - Arrogant A**Hole
TTITLE5=Mes - Dead Butterflies
TTITLE6=Headkrack - Heat of the Summer
TTITLE7=Travii the 7th - Bipolar
TTITLE8=Riq the Briq - Heaven Sent
TTITLE9=Info-Red - Nerd Rap
TTITLE10=Money Waters - It Ain't That Serious
TTITLE11=Massive - Keep Ya Focus
TTITLE12=Edge - Way Too Fly
TTITLE13=Al Lyric - Move Back
TTITLE14=Pikahsso - One on One With God
TTITLE15=E-One - Hip-Hop Money
TTITLE16=Unauthordox - Listen Up
TTITLE17=Rob Viktum and Axis - Built to Crumble
EXTD=
EXTT0=
EXTT1=
EXTT2=
EXTT3=
EXTT4=
EXTT5=
EXTT6=
EXTT7=
EXTT8=
EXTT9=
EXTT10=
EXTT11=
EXTT12=
EXTT13=
EXTT14=
EXTT15=
EXTT16=
EXTT17=
PLAYORDER=
